<mxfile host="Electron" agent="Mozilla/5.0 (Windows NT 10.0; Win64; x64) AppleWebKit/537.36 (KHTML, like Gecko) draw.io/28.0.6 Chrome/138.0.7204.100 Electron/37.2.3 Safari/537.36" version="28.0.6">
  <diagram name="Page-1" id="dFOXQduWXVBDBP-HHxTv">
    <mxGraphModel dx="1090" dy="986" grid="1" gridSize="10" guides="1" tooltips="1" connect="1" arrows="1" fold="1" page="1" pageScale="1" pageWidth="850" pageHeight="1100" math="0" shadow="0">
      <root>
        <mxCell id="0" />
        <mxCell id="1" parent="0" />
        <mxCell id="qaXaH-VM9JebLDEQlSmn-9" value="" style="edgeStyle=orthogonalEdgeStyle;rounded=0;orthogonalLoop=1;jettySize=auto;html=1;endArrow=block;endFill=0;" edge="1" parent="1" source="qaXaH-VM9JebLDEQlSmn-1" target="qaXaH-VM9JebLDEQlSmn-2">
          <mxGeometry relative="1" as="geometry" />
        </mxCell>
        <mxCell id="qaXaH-VM9JebLDEQlSmn-1" value="optimizer" style="rounded=0;whiteSpace=wrap;html=1;" vertex="1" parent="1">
          <mxGeometry x="70" y="50" width="120" height="60" as="geometry" />
        </mxCell>
        <mxCell id="qaXaH-VM9JebLDEQlSmn-2" value="torch.optim.Optimizer" style="rounded=0;whiteSpace=wrap;html=1;" vertex="1" parent="1">
          <mxGeometry x="300" y="50" width="160" height="60" as="geometry" />
        </mxCell>
        <mxCell id="qaXaH-VM9JebLDEQlSmn-10" value="" style="edgeStyle=orthogonalEdgeStyle;rounded=0;orthogonalLoop=1;jettySize=auto;html=1;endArrow=block;endFill=0;" edge="1" parent="1" source="qaXaH-VM9JebLDEQlSmn-3" target="qaXaH-VM9JebLDEQlSmn-4">
          <mxGeometry relative="1" as="geometry" />
        </mxCell>
        <mxCell id="qaXaH-VM9JebLDEQlSmn-3" value="dataset" style="rounded=0;whiteSpace=wrap;html=1;" vertex="1" parent="1">
          <mxGeometry x="70" y="150" width="120" height="60" as="geometry" />
        </mxCell>
        <mxCell id="qaXaH-VM9JebLDEQlSmn-4" value="torch.utils.data.Dataset" style="rounded=0;whiteSpace=wrap;html=1;" vertex="1" parent="1">
          <mxGeometry x="300" y="150" width="250" height="60" as="geometry" />
        </mxCell>
        <mxCell id="qaXaH-VM9JebLDEQlSmn-11" value="" style="edgeStyle=orthogonalEdgeStyle;rounded=0;orthogonalLoop=1;jettySize=auto;html=1;endArrow=block;endFill=0;" edge="1" parent="1" source="qaXaH-VM9JebLDEQlSmn-5" target="qaXaH-VM9JebLDEQlSmn-6">
          <mxGeometry relative="1" as="geometry" />
        </mxCell>
        <mxCell id="qaXaH-VM9JebLDEQlSmn-5" value="dataloader" style="rounded=0;whiteSpace=wrap;html=1;" vertex="1" parent="1">
          <mxGeometry x="70" y="260" width="120" height="60" as="geometry" />
        </mxCell>
        <mxCell id="qaXaH-VM9JebLDEQlSmn-6" value="torch.utils.data.DataLoader" style="rounded=0;whiteSpace=wrap;html=1;" vertex="1" parent="1">
          <mxGeometry x="300" y="260" width="250" height="60" as="geometry" />
        </mxCell>
        <mxCell id="qaXaH-VM9JebLDEQlSmn-12" value="" style="edgeStyle=orthogonalEdgeStyle;rounded=0;orthogonalLoop=1;jettySize=auto;html=1;endArrow=block;endFill=0;" edge="1" parent="1" source="qaXaH-VM9JebLDEQlSmn-7" target="qaXaH-VM9JebLDEQlSmn-8">
          <mxGeometry relative="1" as="geometry" />
        </mxCell>
        <mxCell id="qaXaH-VM9JebLDEQlSmn-7" value="model" style="rounded=0;whiteSpace=wrap;html=1;" vertex="1" parent="1">
          <mxGeometry x="70" y="370" width="120" height="60" as="geometry" />
        </mxCell>
        <mxCell id="qaXaH-VM9JebLDEQlSmn-8" value="torch.nn" style="rounded=0;whiteSpace=wrap;html=1;" vertex="1" parent="1">
          <mxGeometry x="300" y="370" width="110" height="60" as="geometry" />
        </mxCell>
      </root>
    </mxGraphModel>
  </diagram>
</mxfile>
